<svg xmlns="http://www.w3.org/2000/svg" width="445" height="445" viewBox="0 0 445 445" version="1.1"><path d="M 205.500 24.028 C 157.773 28.174, 112.885 48.404, 78.412 81.303 C 36.324 121.470, 15.357 173.200, 17.333 232 C 18.826 276.433, 32.279 314.358, 59.539 350.988 C 91.236 393.578, 141.355 422.219, 195.974 428.955 C 206.904 430.303, 235.139 430.299, 246.026 428.949 C 268.444 426.167, 291.136 419.498, 310.500 409.998 C 332.338 399.285, 347.666 388.395, 364.619 371.549 C 397.344 339.031, 417.866 296.185, 422.938 249.789 C 424.437 236.077, 424.225 207.330, 422.536 195.500 C 417.265 158.564, 401.858 124.130, 377.794 95.500 C 364.505 79.690, 353.298 69.794, 335 57.713 C 297.029 32.641, 249.289 20.224, 205.500 24.028 M 209.500 50.581 C 184.105 52.944, 165.797 57.833, 144.471 67.947 C 70.864 102.854, 31.018 183.961, 48.647 263 C 53.803 286.118, 64.318 309.942, 77.778 329 C 86.404 341.213, 107.754 362.570, 120 371.234 C 138.506 384.327, 163.299 395.031, 187 400.159 C 196.243 402.158, 200.374 402.435, 221.500 402.465 C 242.961 402.496, 246.657 402.252, 256.435 400.160 C 279.359 395.255, 298.439 387.256, 317.500 374.560 C 360.708 345.780, 387.825 302.176, 395.550 249.054 C 397.839 233.315, 397.162 206.829, 394.082 191.621 C 389.306 168.045, 378.448 142.553, 365.279 124 C 356.191 111.196, 337.049 92.156, 324.060 82.999 C 303.272 68.346, 276.437 57.079, 252.730 53.051 C 241.856 51.204, 217.665 49.821, 209.500 50.581 M 110.062 129.670 C 108.141 137.297, 106.759 156.777, 107.376 167.513 C 108.957 195.005, 118.058 218.947, 132.427 233.414 C 140.183 241.223, 145.800 245.178, 159.670 252.596 C 176.698 261.702, 181.833 266.593, 185.968 277.643 C 188.256 283.759, 188.752 298.997, 186.922 307 C 185.195 314.556, 182.840 322.173, 182.374 321.708 C 182.132 321.465, 180.673 316.566, 179.131 310.819 C 173.710 290.612, 165.284 275.306, 152.500 262.446 C 144.887 254.787, 142.036 252.674, 134 248.731 C 122.341 243.011, 107.303 238.992, 96.500 238.709 C 88.576 238.502, 88.497 238.524, 88.199 241.088 C 87.732 245.110, 91.557 261.916, 94.923 270.632 C 103.851 293.747, 115.357 305.195, 145.018 320.477 C 163.439 329.967, 168.303 334.239, 173.799 345.753 C 176.954 352.362, 177.549 354.717, 177.853 361.787 L 178.208 370.075 186.854 369.787 L 195.500 369.500 195.784 366 C 197.866 340.380, 217.957 291.556, 237.269 265.182 C 241.005 260.080, 241.251 259.927, 243.332 261.407 C 248.986 265.430, 256.202 269.100, 263.500 271.664 C 270.892 274.261, 272.639 274.476, 286.500 274.487 C 300.796 274.499, 301.911 274.353, 310.261 271.365 C 322.529 266.976, 329.220 262.740, 338.481 253.500 C 352.508 239.505, 358.818 225.233, 359.702 205.500 C 360.315 191.833, 358.547 182.713, 353.076 171.306 C 343.774 151.912, 329.849 139.450, 309.500 132.308 C 302.132 129.722, 300.355 129.502, 287 129.522 C 273.917 129.541, 271.718 129.808, 264.500 132.246 C 240.330 140.411, 221.053 160.834, 214.935 184.756 C 212.585 193.943, 212.390 208.787, 214.501 217.742 C 216.112 224.575, 220.717 235.390, 223.947 239.925 C 225.076 241.511, 226 243.317, 226 243.939 C 226 244.561, 223.053 248.524, 219.450 252.746 C 215.848 256.968, 210.366 264.152, 207.270 268.711 C 204.173 273.270, 201.301 277, 200.888 277 C 199.895 277, 196.778 272.522, 194.131 267.290 C 191.356 261.807, 191.458 257.276, 194.578 247.506 C 197.810 237.384, 198.915 217.311, 197.054 202.526 C 191.998 162.353, 165.594 135.549, 122.185 126.521 C 111.445 124.288, 111.415 124.296, 110.062 129.670 M 280.226 150.253 C 254.405 153.517, 234 176.100, 234 201.413 C 234 225.401, 249.594 245.593, 273.482 252.538 C 281.510 254.872, 297.286 254.159, 304.816 251.122 C 316.165 246.544, 324.667 239.594, 331.178 229.572 C 341.572 213.574, 342.082 191.940, 332.451 175.507 C 322.033 157.730, 301.110 147.612, 280.226 150.253 M 142.043 173.229 C 142.019 173.629, 146.010 180.015, 150.910 187.419 C 162.790 205.367, 170.289 218.896, 176.729 234 C 184.894 253.147, 186.264 256, 187.300 256 C 188.804 256, 187.210 246.704, 184.331 238.693 C 178.869 223.492, 168.423 205.210, 155.961 189.044 C 149.118 180.168, 142.103 172.196, 142.043 173.229 M 136.195 281.500 C 137.012 282.600, 141.240 287.581, 145.590 292.569 C 149.941 297.557, 156.565 305.967, 160.311 311.258 C 170.679 325.903, 173 328.655, 173 326.307 C 173 322.160, 160.513 305.545, 147.605 292.516 C 140.512 285.357, 135.378 280.400, 136.195 281.500" stroke="none" fill="#5cb830" fill-rule="evenodd"/><path d="M 204.728 23.722 C 206.503 23.943, 209.653 23.946, 211.728 23.730 C 213.802 23.513, 212.350 23.333, 208.500 23.328 C 204.650 23.324, 202.952 23.501, 204.728 23.722 M 231.750 23.723 C 233.537 23.945, 236.463 23.945, 238.250 23.723 C 240.037 23.502, 238.575 23.320, 235 23.320 C 231.425 23.320, 229.963 23.502, 231.750 23.723 M 197.269 24.693 C 198.242 24.947, 199.592 24.930, 200.269 24.656 C 200.946 24.382, 200.150 24.175, 198.500 24.195 C 196.850 24.215, 196.296 24.439, 197.269 24.693 M 185 26 C 183.041 26.627, 182.933 26.797, 184.500 26.782 C 185.600 26.772, 187.850 26.420, 189.500 26 C 192.195 25.314, 192.246 25.235, 190 25.218 C 188.625 25.208, 186.375 25.560, 185 26 M 252.250 25.689 C 253.213 25.941, 254.787 25.941, 255.750 25.689 C 256.712 25.438, 255.925 25.232, 254 25.232 C 252.075 25.232, 251.287 25.438, 252.250 25.689 M 281.492 32.470 C 287.538 34.329, 292.645 35.688, 292.842 35.491 C 293.336 34.997, 273.946 28.989, 272.040 29.046 C 271.193 29.071, 275.446 30.612, 281.492 32.470 M 159 32.231 C 155.425 33.356, 152.950 34.432, 153.500 34.624 C 154.050 34.815, 157.875 33.873, 162 32.531 C 166.125 31.188, 168.600 30.111, 167.500 30.138 C 166.400 30.165, 162.575 31.107, 159 32.231 M 316.500 46.812 C 363.149 71.261, 395.894 108.880, 413.719 158.500 C 416.090 165.100, 417.750 168.925, 417.408 167 C 416.398 161.318, 410.372 145.954, 404.489 134.067 C 388.151 101.052, 363.503 74.041, 331.844 54.457 C 322.685 48.792, 307.858 40.981, 306.343 41.024 C 305.879 41.036, 310.450 43.641, 316.500 46.812 M 126.092 45.984 C 122.017 48.147, 118.192 50.414, 117.592 51.022 C 116.712 51.913, 133.449 43.523, 134.917 42.337 C 136.735 40.868, 132.203 42.741, 126.092 45.984 M 209.500 50.581 C 184.105 52.944, 165.797 57.833, 144.471 67.947 C 70.864 102.854, 31.018 183.961, 48.647 263 C 53.803 286.118, 64.318 309.942, 77.778 329 C 86.404 341.213, 107.754 362.570, 120 371.234 C 138.506 384.327, 163.299 395.031, 187 400.159 C 196.243 402.158, 200.374 402.435, 221.500 402.465 C 242.961 402.496, 246.657 402.252, 256.435 400.160 C 279.359 395.255, 298.439 387.256, 317.500 374.560 C 360.708 345.780, 387.825 302.176, 395.550 249.054 C 397.839 233.315, 397.162 206.829, 394.082 191.621 C 389.306 168.045, 378.448 142.553, 365.279 124 C 356.191 111.196, 337.049 92.156, 324.060 82.999 C 303.272 68.346, 276.437 57.079, 252.730 53.051 C 241.856 51.204, 217.665 49.821, 209.500 50.581 M 105.237 58.527 C 102.356 60.466, 100 62.271, 100 62.537 C 100 62.803, 102.475 61.377, 105.500 59.369 C 110.306 56.178, 111.718 55, 110.737 55 C 110.592 55, 108.117 56.587, 105.237 58.527 M 91.898 68.250 C 81.119 76.892, 72.309 85, 67.827 90.404 C 65.466 93.250, 68.889 90.400, 75.582 83.947 C 82.171 77.593, 90.136 70.452, 93.282 68.077 C 98.332 64.264, 99.687 63, 98.724 63 C 98.571 63, 95.500 65.362, 91.898 68.250 M 59.580 100.177 C 54.549 106.055, 46.836 117.424, 43.079 124.500 C 39.260 131.693, 40.203 130.443, 47.602 118.501 C 50.668 113.551, 55.632 106.464, 58.632 102.751 C 64.610 95.351, 65.290 93.506, 59.580 100.177 M 110.062 129.670 C 108.141 137.297, 106.759 156.777, 107.376 167.513 C 108.957 195.005, 118.058 218.947, 132.427 233.414 C 140.183 241.223, 145.800 245.178, 159.670 252.596 C 176.698 261.702, 181.833 266.593, 185.968 277.643 C 188.256 283.759, 188.752 298.997, 186.922 307 C 185.195 314.556, 182.840 322.173, 182.374 321.708 C 182.132 321.465, 180.673 316.566, 179.131 310.819 C 173.710 290.612, 165.284 275.306, 152.500 262.446 C 144.887 254.787, 142.036 252.674, 134 248.731 C 122.341 243.011, 107.303 238.992, 96.500 238.709 C 88.576 238.502, 88.497 238.524, 88.199 241.088 C 87.732 245.110, 91.557 261.916, 94.923 270.632 C 103.851 293.747, 115.357 305.195, 145.018 320.477 C 163.439 329.967, 168.303 334.239, 173.799 345.753 C 176.954 352.362, 177.549 354.717, 177.853 361.787 L 178.208 370.075 186.854 369.787 L 195.500 369.500 195.784 366 C 197.866 340.380, 217.957 291.556, 237.269 265.182 C 241.005 260.080, 241.251 259.927, 243.332 261.407 C 248.986 265.430, 256.202 269.100, 263.500 271.664 C 270.892 274.261, 272.639 274.476, 286.500 274.487 C 300.796 274.499, 301.911 274.353, 310.261 271.365 C 322.529 266.976, 329.220 262.740, 338.481 253.500 C 352.508 239.505, 358.818 225.233, 359.702 205.500 C 360.315 191.833, 358.547 182.713, 353.076 171.306 C 343.774 151.912, 329.849 139.450, 309.500 132.308 C 302.132 129.722, 300.355 129.502, 287 129.522 C 273.917 129.541, 271.718 129.808, 264.500 132.246 C 240.330 140.411, 221.053 160.834, 214.935 184.756 C 212.585 193.943, 212.390 208.787, 214.501 217.742 C 216.112 224.575, 220.717 235.390, 223.947 239.925 C 225.076 241.511, 226 243.317, 226 243.939 C 226 244.561, 223.053 248.524, 219.450 252.746 C 215.848 256.968, 210.366 264.152, 207.270 268.711 C 204.173 273.270, 201.301 277, 200.888 277 C 199.895 277, 196.778 272.522, 194.131 267.290 C 191.356 261.807, 191.458 257.276, 194.578 247.506 C 197.810 237.384, 198.915 217.311, 197.054 202.526 C 191.998 162.353, 165.594 135.549, 122.185 126.521 C 111.445 124.288, 111.415 124.296, 110.062 129.670 M 34.540 140.250 C 32.156 145.338, 29.933 150.625, 29.598 152 L 28.989 154.500 30.155 152 C 37.296 136.690, 39.793 131, 39.373 131 C 39.098 131, 36.923 135.162, 34.540 140.250 M 280.226 150.253 C 254.405 153.517, 234 176.100, 234 201.413 C 234 225.401, 249.594 245.593, 273.482 252.538 C 281.510 254.872, 297.286 254.159, 304.816 251.122 C 316.165 246.544, 324.667 239.594, 331.178 229.572 C 341.572 213.574, 342.082 191.940, 332.451 175.507 C 322.033 157.730, 301.110 147.612, 280.226 150.253 M 26.624 159.539 C 26.281 160.432, 26.029 161.689, 26.063 162.332 C 26.098 162.974, 26.558 162.422, 27.085 161.105 C 27.612 159.787, 27.864 158.531, 27.645 158.312 C 27.426 158.093, 26.966 158.645, 26.624 159.539 M 22 175.205 C 18.800 187.035, 17.057 197.566, 17.150 204.500 C 17.217 209.411, 17.474 208.413, 18.570 199 C 19.306 192.675, 21.049 183.032, 22.442 177.571 C 23.835 172.110, 24.811 167.477, 24.609 167.276 C 24.408 167.075, 23.234 170.643, 22 175.205 M 418.015 171.583 C 418.023 172.088, 418.722 175.425, 419.568 179 C 423.785 196.817, 425.348 228.588, 423.012 249 C 421.007 266.519, 420.997 266.869, 422.732 259.500 C 424.057 253.875, 424.386 246.904, 424.407 224 C 424.433 196.455, 424.342 195.100, 421.693 183.559 C 419.266 172.985, 417.969 168.764, 418.015 171.583 M 142.043 173.229 C 142.019 173.629, 146.010 180.015, 150.910 187.419 C 162.790 205.367, 170.289 218.896, 176.729 234 C 184.894 253.147, 186.264 256, 187.300 256 C 188.804 256, 187.210 246.704, 184.331 238.693 C 178.869 223.492, 168.423 205.210, 155.961 189.044 C 149.118 180.168, 142.103 172.196, 142.043 173.229 M 16.382 225.500 C 16.384 232.100, 16.546 234.670, 16.741 231.211 C 16.937 227.752, 16.936 222.352, 16.738 219.211 C 16.540 216.070, 16.380 218.900, 16.382 225.500 M 17.153 246 C 17.042 251.728, 21.010 273.652, 22.944 278 L 24.056 280.500 23.522 278 C 20.770 265.130, 18.806 254.255, 18.103 248 C 17.283 240.713, 17.256 240.656, 17.153 246 M 419.123 272.500 C 419.040 273.600, 418.741 275.625, 418.458 277 L 417.944 279.500 419.015 277.047 C 419.604 275.698, 419.903 273.673, 419.679 272.547 C 419.283 270.553, 419.268 270.552, 419.123 272.500 M 136.195 281.500 C 137.012 282.600, 141.240 287.581, 145.590 292.569 C 149.941 297.557, 156.565 305.967, 160.311 311.258 C 170.679 325.903, 173 328.655, 173 326.307 C 173 322.160, 160.513 305.545, 147.605 292.516 C 140.512 285.357, 135.378 280.400, 136.195 281.500 M 413.581 292.780 C 412.034 297.576, 409.242 304.834, 407.376 308.909 C 405.510 312.983, 404.145 316.478, 404.342 316.675 C 404.539 316.872, 406.546 313.003, 408.803 308.076 C 412.893 299.148, 417.602 285.269, 416.810 284.477 C 416.581 284.247, 415.127 287.984, 413.581 292.780 M 25.086 286 C 25.055 286.825, 25.467 288.175, 26 289 C 27.181 290.828, 27.181 289.249, 26 286.500 C 25.433 285.181, 25.122 285.011, 25.086 286 M 28.560 296.250 C 33.507 312.268, 46.263 335.570, 59.899 353.500 C 68.559 364.887, 87.033 382.818, 98.500 390.969 C 102.124 393.545, 98.151 389.920, 88.846 382.162 C 77.732 372.896, 68.668 363.254, 59.539 350.988 C 47.590 334.932, 36.184 314.663, 30.986 300.250 C 28.860 294.356, 27.057 291.381, 28.560 296.250 M 396.552 330.250 C 393.988 334.788, 392.532 337.825, 393.317 337 C 395.004 335.227, 402.389 322, 401.693 322 C 401.429 322, 399.116 325.712, 396.552 330.250 M 384.032 349.216 C 379.925 354.830, 372.096 364.166, 366.634 369.962 L 356.703 380.500 366.643 370.500 C 375.442 361.648, 385.155 349.917, 390.448 341.750 C 394.265 335.860, 391.155 339.479, 384.032 349.216 M 352.437 383.250 L 349.500 386.500 352.750 383.563 C 354.538 381.948, 356 380.485, 356 380.313 C 356 379.540, 355.175 380.221, 352.437 383.250 M 101 392.425 C 101 393.140, 111.472 400.138, 118.250 403.954 C 121.412 405.734, 124 406.966, 124 406.691 C 124 406.416, 121.412 404.734, 118.250 402.954 C 115.088 401.174, 109.912 397.964, 106.750 395.821 C 103.588 393.679, 101 392.150, 101 392.425 M 127 408.490 C 127 409.175, 133.123 412.210, 133.580 411.753 C 133.797 411.536, 132.406 410.610, 130.487 409.695 C 128.569 408.781, 127 408.239, 127 408.490 M 135 412.577 C 135 413.252, 140.195 415.139, 140.690 414.644 C 140.917 414.417, 139.729 413.753, 138.051 413.168 C 136.373 412.583, 135 412.317, 135 412.577 M 146.500 417.387 C 148.150 418.138, 150.625 419.029, 152 419.366 C 154.008 419.859, 153.909 419.710, 151.500 418.613 C 149.850 417.862, 147.375 416.971, 146 416.634 C 143.992 416.141, 144.091 416.290, 146.500 417.387 M 162 422.669 C 170.531 425.480, 186.268 428.993, 190 428.919 C 191.375 428.892, 187.440 427.818, 181.255 426.534 C 175.071 425.249, 166.901 423.254, 163.100 422.099 C 153.601 419.214, 152.790 419.634, 162 422.669 M 278 422.500 C 276.075 423.241, 275.175 423.848, 276 423.848 C 276.825 423.848, 279.075 423.241, 281 422.500 C 282.925 421.759, 283.825 421.152, 283 421.152 C 282.175 421.152, 279.925 421.759, 278 422.500 M 267.500 425.173 C 265.300 425.708, 260.350 426.739, 256.500 427.465 C 252.650 428.190, 250.850 428.823, 252.500 428.870 C 255.591 428.959, 272.917 425.416, 273.824 424.509 C 274.543 423.790, 272.163 424.040, 267.500 425.173 M 197.269 429.693 C 198.242 429.947, 199.592 429.930, 200.269 429.656 C 200.946 429.382, 200.150 429.175, 198.500 429.195 C 196.850 429.215, 196.296 429.439, 197.269 429.693 M 242.250 429.689 C 243.213 429.941, 244.787 429.941, 245.750 429.689 C 246.713 429.438, 245.925 429.232, 244 429.232 C 242.075 429.232, 241.287 429.438, 242.250 429.689 M 213.250 430.743 C 217.512 430.931, 224.488 430.931, 228.750 430.743 C 233.012 430.556, 229.525 430.402, 221 430.402 C 212.475 430.402, 208.988 430.556, 213.250 430.743" stroke="none" fill="#b0dae2" fill-rule="evenodd"/></svg>